inDegrees=no
num_controls=7
num_derivatives=13
num_iterations=73
num_multipliers=7
num_parameters=0
num_slacks=7
num_states=26
objective=1.064657
objective_accelerations=0.157230
objective_balance=0.004438
objective_effort=0.026898
objective_height=0.869075
objective_ligament=0.007015
solver_duration=1005.747401
status=Solve_Succeeded
success=true
DataType=double
version=3
OpenSimVersion=4.5
endheader
time	/jointset/ground_pelvis/pelvis_tilt/value	/jointset/ground_pelvis/pelvis_tx/value	/jointset/ground_pelvis/pelvis_ty/value	/jointset/hip_l/hip_flexion_l/value	/jointset/hip_l/hip_adduction_l/value	/jointset/hip_l/hip_rotation_l/value	/jointset/back/lumbar_extension/value	/jointset/patellofemoral_l/patellar_flexion_l/value	/jointset/knee_l/knee_flexion_l/value	/jointset/knee_l/knee_adduction_l/value	/jointset/knee_l/knee_rotation_l/value	/jointset/ankle_l/ankle_angle_l/value	/jointset/subtalar_l/subtalar_angle_l/value	/jointset/ground_pelvis/pelvis_tilt/speed	/jointset/ground_pelvis/pelvis_tx/speed	/jointset/ground_pelvis/pelvis_ty/speed	/jointset/hip_l/hip_flexion_l/speed	/jointset/hip_l/hip_adduction_l/speed	/jointset/hip_l/hip_rotation_l/speed	/jointset/back/lumbar_extension/speed	/jointset/patellofemoral_l/patellar_flexion_l/speed	/jointset/knee_l/knee_flexion_l/speed	/jointset/knee_l/knee_adduction_l/speed	/jointset/knee_l/knee_rotation_l/speed	/jointset/ankle_l/ankle_angle_l/speed	/jointset/subtalar_l/subtalar_angle_l/speed	/forceset/tau_hip_flexion_l	/forceset/tau_hip_adduction_l	/forceset/tau_hip_rotation_l	/forceset/tau_knee_flexion_l	/forceset/tau_ankle_angle_l	/forceset/tau_subtalar_angle_l	/forceset/tau_lumbar_extension	lambda_cid13_p0	lambda_cid13_p1	lambda_cid13_p2	lambda_cid13_p3	lambda_cid13_p4	lambda_cid13_p5	lambda_cid14_p0	/jointset/ground_pelvis/pelvis_tilt/accel	/jointset/ground_pelvis/pelvis_tx/accel	/jointset/ground_pelvis/pelvis_ty/accel	/jointset/hip_l/hip_flexion_l/accel	/jointset/hip_l/hip_adduction_l/accel	/jointset/hip_l/hip_rotation_l/accel	/jointset/back/lumbar_extension/accel	/jointset/patellofemoral_l/patellar_flexion_l/accel	/jointset/knee_l/knee_flexion_l/accel	/jointset/knee_l/knee_adduction_l/accel	/jointset/knee_l/knee_rotation_l/accel	/jointset/ankle_l/ankle_angle_l/accel	/jointset/subtalar_l/subtalar_angle_l/accel	gamma_cid13_p0	gamma_cid13_p1	gamma_cid13_p2	gamma_cid13_p3	gamma_cid13_p4	gamma_cid13_p5	gamma_cid14_p0
1.5	-0.2941835860055858	-0.03202682687653995	0.6353956024082786	1.497541387213756	-0.3382851934911332	0.1458559009472691	-0.4128433343077506	1.402881317667583	1.402881317667619	0.0183844857009772	-0.1572743140491003	0.3627149003459449	0.2203141330041849	0.1246963326062958	0.1881819291831371	1.058739784434792	-3.080463432581506	-0.121643696420395	-0.7334295520888526	0.3754395263390454	-3.236650984935132	-3.236650984935102	-0.5589551604921601	0.1714939849600035	-0.5447205380953027	-0.4573365659141126	-0.142232494898983	0.01434573998678709	-0.001275658552629958	-0.340772948069288	0.1399232181158278	0.004669467376658383	0.1571133686542001	16.55603549170381	5.627155826346939	-13.23327903585628	-39.43313193277012	-483.8792184486663	-72.41115765158646	-0.02486068803346352	2.21303890687997	2.196213000172857	0.2039436452718247	-5.318645072038711	0.472036575618402	-0.1282713834311814	3.652768995423778	-5.186208613665822	-5.186208613665808	-0.4084025931562794	1.148833257657543	-2.181765278455961	0.1971951669036724	-6.360243673096649e-08	5.865809780366398e-06	8.217401907783559e-06	1.684435515394344e-06	-3.412096408564725e-07	9.12485447779597e-06	-8.872306323424634e-07
1.51	-0.2928265025336665	-0.03003468217812042	0.645989436395453	1.466475800640878	-0.3394784583330251	0.1385077483142984	-0.4089060480162472	1.370259821097066	1.370259821097068	0.01278293062353166	-0.1555045242818998	0.3571592551622954	0.2157509402432753	0.1466505581836487	0.2102947322969016	1.059654669908584	-3.132173711852679	-0.1170011390292077	-0.7361955925345972	0.4120681437779649	-3.287174833052529	-3.287174833052499	-0.5611851193359121	0.1824931390640034	-0.5662967096922009	-0.4551903482809725	-0.1367672947761283	0.0133493140614821	-0.001141156395901071	-0.3311032334857486	0.1401331963675707	0.005537214122154974	0.1522124635353102	17.4262678138759	4.685193955726299	-12.61166620006636	-40.52687969565007	-474.5374625340148	-71.33440312795079	-0.02504405336864075	2.176237996586022	2.226282495350133	-0.02063208867103534	-5.025120660459597	0.4603110378662656	-0.3502014503238058	3.675469890655108	-4.914305954335198	-4.914305954335163	-0.1043001849782413	1.081659435672727	-2.128480856064098	0.2382045125636294	-1.204312869983447e-08	5.993163801286051e-06	7.825258167727627e-06	1.596563394970731e-06	-2.533682162847892e-07	8.376451376340553e-06	-7.720372364909333e-07
1.52	-0.2912519520832948	-0.02781991574288916	0.6565812406199447	1.434907531014113	-0.340625308457607	0.1311320490618312	-0.4046009631958523	1.337147319436664	1.337147319436638	0.007164274426735577	-0.1536235023838717	0.3513912607115266	0.2112121835489056	0.1681897282979418	0.2327062765454858	1.058333831898241	-3.181000043355969	-0.112360752958123	-0.7389388759874523	0.4489992321180562	-3.334852002912271	-3.334852002912241	-0.5623753843794101	0.1937404111240702	-0.5871903915193967	-0.4524493526060536	-0.13130209465336	0.01235288813615278	-0.001006654238642493	-0.321433518902194	0.1403431746193204	0.006404960867610344	0.1473115584163308	18.28245070563783	3.75424863487494	-12.00159061114658	-41.63218482733066	-465.2366182069171	-70.3128534643849	-0.02515637726407563	2.130027814268182	2.255961227136715	-0.2432010515552398	-4.741855518461836	0.4716023115978635	-0.1237199848533849	3.71326317565815	-4.616872962134951	-4.61687296213495	-0.2004638331053724	1.198456848870959	-2.045267324515631	0.316150775259417	-1.197136737700838e-08	5.633681176229946e-06	6.740897099388152e-06	1.473019196752288e-06	-1.385475762709537e-07	7.20447956288727e-06	-6.127978860786441e-07
1.53	-0.2894640634705788	-0.02538076402197208	0.6671483630980121	1.402866948074879	-0.3417255887818876	0.1237312948135729	-0.3999246560265627	1.303572623751606	1.303572623751568	0.001536624760587887	-0.1516286543295597	0.3454163663176987	0.2067031957472943	0.1893894499339037	0.2550557772011263	1.054698768275973	-3.226562629623801	-0.107673385519012	-0.7412941373039763	0.4862712044374797	-3.379568598367285	-3.379568598367248	-0.5628912148176858	0.2052058089469108	-0.6077774828877724	-0.449277546267771	-0.1284329975569336	0.01627092948121438	-0.001246288987352495	-0.3063592654202572	0.1332132852353578	0.00474534982539104	0.1437358729083385	16.46221836240267	4.388103355462083	-11.63932260698787	-39.5549835133131	-455.2471207651888	-65.40376109318919	-0.0252499490795331	2.115231553086134	2.214445947674252	-0.4824269826440853	-4.380316301565164	0.4699009780925562	-0.3037865950553629	3.735514664816302	-4.321213186047881	-4.321213186046939	0.06273357509481468	1.118048304883842	-2.063592963154623	0.3271447190799838	-6.660512443175675e-08	4.756934614824602e-06	4.921055119747421e-06	1.311573415876838e-06	4.938480150168362e-09	5.582465992936258e-06	-4.067597089455489e-07
1.54	-0.2874641201985478	-0.02272011700191971	0.6776673813468406	1.370387368048828	-0.3427784760281797	0.1163045164741855	-0.3948753590531371	1.269566330042226	1.269566330042207	-0.004088207965290373	-0.1495196588858995	0.3392359684261461	0.2022278158402594	0.2106006601629038	0.2770053363725449	1.048712986050462	-3.268799460716497	-0.1028821373589471	-0.7441436942206073	0.5235971929461858	-3.421171607776835	-3.421171607776792	-0.5618119962845948	0.2165698890054812	-0.628291091062394	-0.4457277736907924	-0.1255639004605938	0.02018897082647	-0.001485923738097673	-0.2912850119383446	0.1260833958514663	0.003085738783517949	0.1401601874002626	14.6435944044662	5.018933827145013	-11.27344328876548	-37.5994703016349	-445.3429951857021	-60.60857129253749	-0.02528407379219227	2.132325532876099	2.175972930292295	-0.7133447722040998	-4.076704483434609	0.4923784557889471	-0.2225791048749308	3.724066413514677	-3.994155753042367	-3.994155753042345	0.1185459611681225	1.178193296016895	-2.030570685764892	0.3917440229986037	-9.544640970455198e-08	1.898542772510408e-06	-1.233366956635541e-06	5.115152985467032e-07	7.473672340557298e-07	1.686822889808185e-06	2.068340014169269e-07
